HIERARCHY
ROOT Hips
{
	OFFSET 0.00000 0.00000 0.00000
	CHANNELS 6 Xposition Yposition Zposition Zrotation Yrotation Xrotation 
	JOINT LHipJoint
	{
		OFFSET 0 0 0
		CHANNELS 3 Zrotation Yrotation Xrotation
		JOINT LeftUpLeg
		{
			OFFSET 1.85742 -1.74412 1.01653
			CHANNELS 3 Zrotation Yrotation Xrotation
			JOINT LeftLeg
			{
				OFFSET 2.54803 -7.00067 0.00000
				CHANNELS 3 Zrotation Yrotation Xrotation
				JOINT LeftFoot
				{
					OFFSET 2.51202 -6.90173 0.00000
					CHANNELS 3 Zrotation Yrotation Xrotation
					JOINT LeftToeBase
					{
						OFFSET 0.17547 -0.48209 1.64281
						CHANNELS 3 Zrotation Yrotation Xrotation
						End Site
						{
							OFFSET 0.00000 -0.00000 0.86587
						}
					}
				}
			}
		}
	}
	JOINT RHipJoint
	{
		OFFSET 0 0 0
		CHANNELS 3 Zrotation Yrotation Xrotation
		JOINT RightUpLeg
		{
			OFFSET -1.95533 -1.74413 1.01654
			CHANNELS 3 Zrotation Yrotation Xrotation
			JOINT RightLeg
			{
				OFFSET -2.49465 -6.85400 0.00000
				CHANNELS 3 Zrotation Yrotation Xrotation
				JOINT RightFoot
				{
					OFFSET -2.54783 -7.00010 0.00000
					CHANNELS 3 Zrotation Yrotation Xrotation
					JOINT RightToeBase
					{
						OFFSET -0.18513 -0.50864 1.69288
						CHANNELS 3 Zrotation Yrotation Xrotation
						End Site
						{
							OFFSET -0.00000 -0.00000 0.89242
						}
					}
				}
			}
		}
	}
	JOINT LowerBack
	{
		OFFSET 0 0 0
		CHANNELS 3 Zrotation Yrotation Xrotation
		JOINT Spine
		{
			OFFSET 0.02173 2.16290 -0.15998
			CHANNELS 3 Zrotation Yrotation Xrotation
			JOINT Spine1
			{
				OFFSET 0.00940 2.17323 -0.00467
				CHANNELS 3 Zrotation Yrotation Xrotation
				JOINT Neck
				{
					OFFSET 0 0 0
					CHANNELS 3 Zrotation Yrotation Xrotation
					JOINT Neck1
					{
						OFFSET 0.01475 1.85823 0.31113
						CHANNELS 3 Zrotation Yrotation Xrotation
						JOINT Head
						{
							OFFSET 0.01902 1.88783 -0.37187
							CHANNELS 3 Zrotation Yrotation Xrotation
							End Site
							{
								OFFSET 0.00489 1.93211 -0.16169
							}
						}
					}
				}
				JOINT LeftShoulder
				{
					OFFSET 0 0 0
					CHANNELS 3 Zrotation Yrotation Xrotation
					JOINT LeftArm
					{
						OFFSET 3.34199 1.32384 -0.07862
						CHANNELS 3 Zrotation Yrotation Xrotation
						JOINT LeftForeArm
						{
							OFFSET 5.27950 -0.00000 0.00000
							CHANNELS 3 Zrotation Yrotation Xrotation
							JOINT LeftHand
							{
								OFFSET 3.53504 -0.00000 0.00000
								CHANNELS 3 Zrotation Yrotation Xrotation
								JOINT LeftFingerBase
								{
									OFFSET 0 0 0
									CHANNELS 3 Zrotation Yrotation Xrotation
									JOINT LeftHandIndex1
									{
										OFFSET 0.66795 -0.00000 0.00000
										CHANNELS 3 Zrotation Yrotation Xrotation
										End Site
										{
											OFFSET 0.53852 -0.00000 0.00000
										}
									}
								}
								JOINT LThumb
								{
									OFFSET 0 0 0
									CHANNELS 3 Zrotation Yrotation Xrotation
									End Site
									{
										OFFSET 0.54674 -0.00000 0.54674
									}
								}
							}
						}
					}
				}
				JOINT RightShoulder
				{
					OFFSET 0 0 0
					CHANNELS 3 Zrotation Yrotation Xrotation
					JOINT RightArm
					{
						OFFSET -3.16149 1.45719 -0.50507
						CHANNELS 3 Zrotation Yrotation Xrotation
						JOINT RightForeArm
						{
							OFFSET -5.25035 -0.00000 0.00000
							CHANNELS 3 Zrotation Yrotation Xrotation
							JOINT RightHand
							{
								OFFSET -3.58884 -0.00000 0.00000
								CHANNELS 3 Zrotation Yrotation Xrotation
								JOINT RightFingerBase
								{
									OFFSET 0 0 0
									CHANNELS 3 Zrotation Yrotation Xrotation
									JOINT RightHandIndex1
									{
										OFFSET -0.77924 -0.00000 0.00000
										CHANNELS 3 Zrotation Yrotation Xrotation
										End Site
										{
											OFFSET -0.62824 -0.00000 0.00000
										}
									}
								}
								JOINT RThumb
								{
									OFFSET 0 0 0
									CHANNELS 3 Zrotation Yrotation Xrotation
									End Site
									{
										OFFSET -0.63783 -0.00000 0.63783
									}
								}
							}
						}
					}
				}
			}
		}
	}
}
MOTION
Frames: 10
Frame Time: .0083333
-16.477 17.4758 -2.9961 0 0 0 0 0 0 -21 0 0 0 0 0 0 0 0 0 0 0 0 0 0 21 0 0 0 0 0 0 0 0 0 0 0 0 0 0 0 0 0 0 0 0 0 0 -16 0 0 21 0 0 11 0 0 0 -8 0 0 0 0 0 0 0 0 0 0 0 0 0 0 0 0 0 0 0 0 8 0 0 0 0 0 0 0 0 0 0 0 0 0 0 0 0 0
-16.4770 17.4758 -2.9961 -147.5380 80.9075 -141.0270 0.0000 0.0000 0.0000 -15.8504 -9.9560 -12.4031 1.9271 8.7124 24.8999 0.6154 7.5005 -19.4078 4.9316 -13.3063 -40.5263 0.0000 0.0000 0.0000 24.1759 19.1747 -0.9579 -0.8968 -6.0356 16.8877 2.0990 -28.2986 -26.1976 -0.0004 -0.1308 0.3594 -1.3859 0.0273 1.0205 0.7827 0.0295 -1.4289 1.5786 0.0452 -2.0378 2.5979 0.5425 -24.1398 -5.8290 3.1241 35.9544 -2.3307 1.0815 17.4449 0.0000 0.0000 0.0000 -85.1825 5.4160 32.9562 18.1873 -28.3964 -4.6380 -0.0000 0.0000 -28.0717 34.4602 52.0676 28.4257 -7.1250 0.0000 -0.0000 -57.8054 84.9917 -53.4581 0.0000 0.0000 0.0000 83.2983 -5.7471 31.6321 -16.9596 26.8045 -4.0691 0.0000 0.0000 1.3283 -19.0602 19.1390 -6.4627 7.1250 -0.0000 -0.0000 5.9474 -9.9042 4.8628
-16.4680 17.4734 -3.0198 -147.3210 80.9297 -140.8450 0.0000 0.0000 0.0000 -15.9281 -9.7776 -12.3927 1.9264 8.7111 24.8957 0.6130 7.4225 -19.3175 4.3021 -12.5518 -37.7133 0.0000 0.0000 0.0000 24.1120 19.0134 -0.9533 -0.8972 -6.0371 16.8920 2.0830 -28.1907 -26.0756 -0.0002 -0.0998 0.2742 -1.4363 0.0150 1.1165 0.8255 0.0115 -1.4188 1.6515 0.0375 -2.0808 2.6091 0.3467 -24.1307 -5.6527 2.7537 36.0991 -2.3366 0.9614 17.4888 0.0000 0.0000 0.0000 -85.1363 5.4681 32.6059 18.0959 -28.2798 -4.5946 -0.0000 0.0000 -28.1360 33.8757 51.3549 27.6702 -7.1250 0.0000 -0.0000 -50.2274 84.4980 -45.8596 0.0000 0.0000 0.0000 83.2599 -5.6002 31.6391 -17.0825 26.9664 -4.1247 0.0000 0.0000 1.4202 -19.2033 19.3192 -6.5731 7.1250 -0.0000 -0.0000 5.8654 -9.6986 4.8194
-16.4597 17.4743 -3.0422 -147.0530 80.9458 -140.5890 0.0000 0.0000 0.0000 -15.9809 -9.5763 -12.4224 1.9258 8.7097 24.8914 0.6141 7.3207 -19.2441 3.6301 -11.6511 -34.5088 0.0000 0.0000 0.0000 24.0379 18.7208 -1.0260 -0.8967 -6.0352 16.8865 2.0238 -27.9169 -25.9505 -0.0010 -0.2020 0.5550 -1.4520 0.0365 1.1386 0.8528 0.0400 -1.4014 1.6875 0.0520 -2.0766 2.3334 0.1777 -24.0912 -5.2081 2.4513 36.2674 -2.1530 0.8700 17.5345 -0.0000 -0.0000 0.0000 -85.0628 5.4608 32.3772 18.0033 -28.1615 -4.5508 -0.0000 0.0000 -28.1347 34.2223 51.1137 27.8985 -7.1250 0.0000 -0.0000 -47.7972 84.5711 -43.6402 -0.0000 -0.0000 0.0000 83.3122 -5.5584 31.3602 -17.3426 27.3072 -4.2433 0.0000 0.0000 1.3725 -18.9969 19.5568 -6.5738 7.1250 -0.0000 -0.0000 6.0133 -9.4796 4.9690
-16.4536 17.4743 -3.0609 -146.6960 80.9637 -140.2650 0.0000 0.0000 0.0000 -16.0101 -9.4914 -12.3948 1.9313 8.7215 24.9281 0.6328 7.1807 -19.3253 2.8946 -10.5225 -30.6858 0.0000 0.0000 0.0000 23.9904 18.4151 -1.0672 -0.8903 -6.0142 16.8255 1.9840 -27.6770 -25.7312 -0.0006 -0.1568 0.4309 -1.4678 0.0427 1.1752 0.8921 0.0481 -1.3571 1.7365 0.0559 -2.0520 1.8890 -0.1474 -24.1895 -4.6246 1.9230 36.5075 -1.9279 0.6819 17.6407 0.0000 -0.0000 0.0000 -84.9985 5.4095 32.1389 17.9109 -28.0430 -4.5073 -0.0000 0.0000 -28.0898 34.8552 51.1255 28.4666 -7.1250 0.0000 -0.0000 -47.7162 84.8819 -43.8098 0.0000 -0.0000 0.0000 83.3499 -5.5285 31.1449 -17.7191 27.7960 -4.4175 0.0000 0.0000 0.9607 -18.4351 19.6829 -6.4059 7.1250 -0.0000 -0.0000 6.3838 -9.4227 5.2864
-16.4501 17.4722 -3.0779 -146.1390 80.9553 -139.6950 0.0000 0.0000 0.0000 -15.9795 -9.4403 -12.4474 1.9390 8.7378 24.9787 0.6510 7.0781 -19.4309 1.6131 -8.0090 -22.7413 0.0000 0.0000 0.0000 23.9766 18.1967 -1.1840 -0.8827 -5.9891 16.7529 2.0442 -27.7098 -25.2150 -0.0023 0.3065 -0.8422 -1.3692 0.0697 1.1691 0.8837 0.0856 -1.3016 1.6714 0.0721 -1.9929 1.8182 -0.3441 -24.2831 -4.3355 1.5288 36.6166 -1.8719 0.5556 17.6962 0.0000 -0.0000 0.0000 -84.7583 5.2849 32.0572 17.8077 -27.9102 -4.4588 -0.0000 0.0000 -28.0282 34.9752 51.3172 28.6385 -7.1250 0.0000 -0.0000 -49.7115 85.0136 -45.7943 0.0000 -0.0000 0.0000 83.5748 -5.6078 30.8408 -17.9918 28.1466 -4.5454 0.0000 0.0000 1.2279 -19.0565 20.1045 -6.7714 7.1250 -0.0000 -0.0000 6.0090 -8.9045 5.0350
-16.4485 17.4705 -3.0964 -145.7090 80.9338 -139.1710 0.0000 0.0000 0.0000 -15.9478 -9.4429 -12.5883 1.9447 8.7499 25.0161 0.6612 7.0201 -19.4893 1.5653 -7.8950 -22.3956 0.0000 0.0000 0.0000 23.9243 18.0647 -1.4296 -0.8813 -5.9847 16.7399 2.1446 -27.8847 -24.6392 -0.0207 0.9280 -2.5506 -1.1975 0.1030 1.0865 0.8402 0.1338 -1.2903 1.5290 0.0928 -1.9361 1.6666 -0.5653 -24.2784 -3.8997 1.0704 36.6832 -1.7456 0.4153 17.7011 -0.0000 0.0000 0.0000 -84.4597 5.2017 32.0364 17.7182 -27.7949 -4.4171 -0.0000 0.0000 -27.7525 35.0549 51.8927 28.9025 -7.1250 0.0000 -0.0000 -56.1789 85.2308 -52.1167 -0.0000 0.0000 0.0000 83.9335 -5.8205 30.2928 -18.3974 28.6630 -4.7383 0.0000 0.0000 1.4112 -19.3422 20.2001 -6.9110 7.1250 -0.0000 -0.0000 5.8317 -8.7664 4.9009
-16.4457 17.4676 -3.1112 -145.4810 81.0002 -138.9800 0.0000 0.0000 0.0000 -16.0102 -9.2162 -12.6202 1.9484 8.7577 25.0403 0.6679 6.8684 -19.4376 1.5465 -7.8496 -22.2582 0.0000 0.0000 0.0000 23.8578 17.9382 -1.4641 -0.8818 -5.9863 16.7448 2.1493 -27.8283 -24.4328 -0.0314 1.1442 -3.1457 -1.1599 0.1210 1.1119 0.8165 0.1575 -1.2545 1.4829 0.1033 -1.9142 1.4284 -0.7735 -24.1977 -3.3892 0.6441 36.7431 -1.5613 0.2885 17.6889 0.0000 0.0000 0.0000 -84.3001 5.1455 31.7193 17.5745 -27.6090 -4.3503 -0.0000 0.0000 -27.1689 34.8753 52.2955 28.8735 -7.1250 0.0000 -0.0000 -60.7666 85.2327 -56.5119 0.0000 0.0000 0.0000 84.0776 -5.8767 30.1889 -18.7588 29.1178 -4.9129 0.0000 0.0000 1.2379 -19.3639 20.1050 -6.8884 7.1250 -0.0000 -0.0000 5.8115 -8.8620 4.8726
-16.4428 17.4604 -3.1185 -145.2200 81.1485 -138.8800 0.0000 0.0000 0.0000 -16.1696 -9.7686 -12.1390 1.9461 8.7528 25.0250 0.6141 7.7720 -19.6242 1.7101 -8.2342 -23.4276 0.0000 0.0000 0.0000 23.8305 17.9078 -1.2886 -0.8859 -5.9999 16.7842 2.1010 -27.6725 -24.5218 -0.0264 1.0492 -2.8841 -1.2457 0.1670 1.2517 0.7819 0.2141 -1.1853 1.4937 0.1318 -1.9240 1.1724 -0.9878 -24.1292 -2.7934 0.1779 36.7927 -1.3434 0.1558 17.6781 0.0000 0.0000 0.0000 -84.1162 5.0895 31.5134 17.4828 -27.4899 -4.3078 -0.0000 0.0000 -27.2361 35.6498 52.3918 29.6054 -7.1250 0.0000 -0.0000 -62.9075 85.6073 -58.9201 0.0000 0.0000 0.0000 84.1132 -5.8121 30.4346 -19.0591 29.4921 -5.0599 0.0000 0.0000 0.8816 -19.4068 19.9482 -6.8535 7.1250 -0.0000 -0.0000 5.7736 -9.0188 4.8224
-16.4403 17.4613 -3.1250 -144.9340 81.2905 -138.6670 0.0000 0.0000 0.0000 -16.2427 -9.4408 -12.1087 1.9407 8.7414 24.9897 0.6480 7.3719 -19.6390 1.6051 -7.9900 -22.6838 0.0000 0.0000 0.0000 23.7984 17.9682 -1.1869 -0.8938 -6.0256 16.8588 2.0453 -27.5261 -24.7168 -0.0159 0.8145 -2.2386 -1.3423 0.1865 1.3202 0.7702 0.2367 -1.1496 1.5351 0.1439 -1.9270 0.9977 -1.1712 -24.0789 -2.2937 -0.2428 36.7989 -1.1740 0.0370 17.6555 0.0000 -0.0000 0.0000 -83.9546 5.0676 31.2461 17.4071 -27.3913 -4.2729 -0.0000 0.0000 -27.2229 36.1021 52.4395 30.0321 -7.1250 0.0000 -0.0000 -64.2625 85.8218 -60.4317 0.0000 -0.0000 0.0000 84.1429 -5.7355 30.6887 -19.3479 29.8487 -5.2029 0.0000 0.0000 0.6438 -19.4313 19.6652 -6.7702 7.1250 -0.0000 -0.0000 5.7394 -9.3091 4.7600
